<svg xmlns="http://www.w3.org/2000/svg" width="20" height="20" fill="none"><path fill="#71717A" d="M0 10C0 4.477 4.477 0 10 0s10 4.477 10 10-4.477 10-10 10S0 15.523 0 10Z" style="fill:#71717a;fill:color(display-p3 .4431 .4431 .4784);fill-opacity:1"/><g filter="url(#a)"><path fill="url(#b)" d="M6.305 13.862C8.083 12.521 8.973 11.85 10 11.85c1.027 0 1.917.67 3.695 2.012l.68.513-.513-.68C12.521 11.917 11.85 11.027 11.85 10c0-1.027.67-1.917 2.012-3.695l.513-.68-.68.513C11.917 7.479 11.027 8.15 10 8.15c-1.027 0-1.917-.67-3.695-2.012l-.68-.513.513.68C7.479 8.083 8.15 8.973 8.15 10c0 1.027-.67 1.917-2.012 3.695l-.513.68.68-.513Z"/></g><defs><linearGradient id="b" x1="10" x2="10" y1="5.625" y2="14.375" gradientUnits="userSpaceOnUse"><stop stop-color="#FAFAFA" style="stop-color:#fafafa;stop-color:color(display-p3 .9804 .9804 .9804);stop-opacity:1"/><stop offset="1" stop-color="#E4E4E7" style="stop-color:#e4e4e7;stop-color:color(display-p3 .8941 .8941 .9059);stop-opacity:1"/></linearGradient><filter id="a" width="10.75" height="10.75" x="4.625" y="5.625" color-interpolation-filters="sRGB" filterUnits="userSpaceOnUse"><feFlood flood-opacity="0" result="BackgroundImageFix"/><feColorMatrix in="SourceAlpha" result="hardAlpha" values="0 0 0 0 0 0 0 0 0 0 0 0 0 0 0 0 0 0 127 0"/><feOffset dy="1"/><feGaussianBlur stdDeviation=".5"/><feComposite in2="hardAlpha" operator="out"/><feColorMatrix values="0 0 0 0 0.0352941 0 0 0 0 0.0352941 0 0 0 0 0.0431373 0 0 0 0.08 0"/><feBlend in2="BackgroundImageFix" result="effect1_dropShadow_2065_463"/><feBlend in="SourceGraphic" in2="effect1_dropShadow_2065_463" result="shape"/></filter></defs></svg>