<svg xmlns="http://www.w3.org/2000/svg" width="20" height="20" fill="none"><g filter="url(#a)"><path fill="url(#b)" d="M0 10C0 4.477 4.477 0 10 0s10 4.477 10 10-4.477 10-10 10S0 15.523 0 10Z"/></g><g filter="url(#c)"><path fill="url(#d)" d="M6.305 13.862C8.083 12.521 8.973 11.85 10 11.85c1.027 0 1.917.67 3.695 2.012l.68.513-.513-.68C12.521 11.917 11.85 11.027 11.85 10c0-1.027.67-1.917 2.012-3.695l.513-.68-.68.513C11.917 7.479 11.027 8.15 10 8.15c-1.027 0-1.917-.67-3.695-2.012l-.68-.513.513.68C7.479 8.083 8.15 8.973 8.15 10c0 1.027-.67 1.917-2.012 3.695l-.513.68.68-.513Z" shape-rendering="crispEdges"/></g><defs><linearGradient id="b" x1="10" x2="10" y1="0" y2="20" gradientUnits="userSpaceOnUse"><stop stop-color="#52525B" style="stop-color:#52525b;stop-color:color(display-p3 .3216 .3216 .3569);stop-opacity:1"/><stop offset="1" stop-color="#3F3F46" style="stop-color:#3f3f46;stop-color:color(display-p3 .2471 .2471 .2745);stop-opacity:1"/></linearGradient><linearGradient id="d" x1="10" x2="10" y1="5.625" y2="14.375" gradientUnits="userSpaceOnUse"><stop stop-color="#E4E4E7" stop-opacity=".64" style="stop-color:#e4e4e7;stop-color:color(display-p3 .8941 .8941 .9059);stop-opacity:.64"/><stop offset="1" stop-color="#E4E4E7" style="stop-color:#e4e4e7;stop-color:color(display-p3 .8941 .8941 .9059);stop-opacity:1"/></linearGradient><filter id="a" width="20" height="20" x="0" y="0" color-interpolation-filters="sRGB" filterUnits="userSpaceOnUse"><feFlood flood-opacity="0" result="BackgroundImageFix"/><feBlend in="SourceGraphic" in2="BackgroundImageFix" result="shape"/><feColorMatrix in="SourceAlpha" result="hardAlpha" values="0 0 0 0 0 0 0 0 0 0 0 0 0 0 0 0 0 0 127 0"/><feOffset dy="1"/><feComposite in2="hardAlpha" k2="-1" k3="1" operator="arithmetic"/><feColorMatrix values="0 0 0 0 1 0 0 0 0 1 0 0 0 0 1 0 0 0 0.16 0"/><feBlend in2="shape" result="effect1_innerShadow_2065_41"/></filter><filter id="c" width="10.75" height="10.75" x="4.625" y="5.625" color-interpolation-filters="sRGB" filterUnits="userSpaceOnUse"><feFlood flood-opacity="0" result="BackgroundImageFix"/><feColorMatrix in="SourceAlpha" result="hardAlpha" values="0 0 0 0 0 0 0 0 0 0 0 0 0 0 0 0 0 0 127 0"/><feOffset dy="1"/><feGaussianBlur stdDeviation=".5"/><feComposite in2="hardAlpha" operator="out"/><feColorMatrix values="0 0 0 0 0.0352941 0 0 0 0 0.0352941 0 0 0 0 0.0431373 0 0 0 0.32 0"/><feBlend in2="BackgroundImageFix" result="effect1_dropShadow_2065_41"/><feBlend in="SourceGraphic" in2="effect1_dropShadow_2065_41" result="shape"/><feColorMatrix in="SourceAlpha" result="hardAlpha" values="0 0 0 0 0 0 0 0 0 0 0 0 0 0 0 0 0 0 127 0"/><feOffset dy="1"/><feComposite in2="hardAlpha" k2="-1" k3="1" operator="arithmetic"/><feColorMatrix values="0 0 0 0 1 0 0 0 0 1 0 0 0 0 1 0 0 0 0.32 0"/><feBlend in2="shape" result="effect2_innerShadow_2065_41"/></filter></defs></svg>