<svg xmlns="http://www.w3.org/2000/svg" width="20" height="20" fill="none"><g filter="url(#a)"><path fill="url(#b)" d="M0 10C0 4.477 4.477 0 10 0s10 4.477 10 10-4.477 10-10 10S0 15.523 0 10Z"/></g><g filter="url(#c)"><path fill="url(#d)" d="M9.638 6.11v-.004c.104-.364.62-.364.723 0l.001.004.004.012a5.092 5.092 0 0 0 3.512 3.512l.012.004h.004c.364.104.364.62 0 .723l-.004.001-.012.004a5.092 5.092 0 0 0-3.512 3.512l-.004.012v.004c-.104.364-.62.364-.723 0l-.001-.004-.004-.012a5.093 5.093 0 0 0-3.512-3.512l-.012-.004h-.004c-.364-.104-.364-.62 0-.723l.004-.001.012-.004a5.092 5.092 0 0 0 3.512-3.512l.004-.012Z" shape-rendering="crispEdges"/></g><defs><linearGradient id="b" x1="10" x2="10" y1="0" y2="20" gradientUnits="userSpaceOnUse"><stop stop-color="#52525B" style="stop-color:#52525b;stop-color:color(display-p3 .3216 .3216 .3569);stop-opacity:1"/><stop offset="1" stop-color="#3F3F46" style="stop-color:#3f3f46;stop-color:color(display-p3 .2471 .2471 .2745);stop-opacity:1"/></linearGradient><linearGradient id="d" x1="10" x2="10" y1="5.833" y2="14.167" gradientUnits="userSpaceOnUse"><stop stop-color="#E4E4E7" stop-opacity=".64" style="stop-color:#e4e4e7;stop-color:color(display-p3 .8941 .8941 .9059);stop-opacity:.64"/><stop offset="1" stop-color="#E4E4E7" style="stop-color:#e4e4e7;stop-color:color(display-p3 .8941 .8941 .9059);stop-opacity:1"/></linearGradient><filter id="a" width="20" height="20" x="0" y="0" color-interpolation-filters="sRGB" filterUnits="userSpaceOnUse"><feFlood flood-opacity="0" result="BackgroundImageFix"/><feBlend in="SourceGraphic" in2="BackgroundImageFix" result="shape"/><feColorMatrix in="SourceAlpha" result="hardAlpha" values="0 0 0 0 0 0 0 0 0 0 0 0 0 0 0 0 0 0 127 0"/><feOffset dy="1"/><feComposite in2="hardAlpha" k2="-1" k3="1" operator="arithmetic"/><feColorMatrix values="0 0 0 0 1 0 0 0 0 1 0 0 0 0 1 0 0 0 0.16 0"/><feBlend in2="shape" result="effect1_innerShadow_2065_46"/></filter><filter id="c" width="10.333" height="10.333" x="4.833" y="5.833" color-interpolation-filters="sRGB" filterUnits="userSpaceOnUse"><feFlood flood-opacity="0" result="BackgroundImageFix"/><feColorMatrix in="SourceAlpha" result="hardAlpha" values="0 0 0 0 0 0 0 0 0 0 0 0 0 0 0 0 0 0 127 0"/><feOffset dy="1"/><feGaussianBlur stdDeviation=".5"/><feComposite in2="hardAlpha" operator="out"/><feColorMatrix values="0 0 0 0 0.0352941 0 0 0 0 0.0352941 0 0 0 0 0.0431373 0 0 0 0.32 0"/><feBlend in2="BackgroundImageFix" result="effect1_dropShadow_2065_46"/><feBlend in="SourceGraphic" in2="effect1_dropShadow_2065_46" result="shape"/><feColorMatrix in="SourceAlpha" result="hardAlpha" values="0 0 0 0 0 0 0 0 0 0 0 0 0 0 0 0 0 0 127 0"/><feOffset dy="1"/><feComposite in2="hardAlpha" k2="-1" k3="1" operator="arithmetic"/><feColorMatrix values="0 0 0 0 1 0 0 0 0 1 0 0 0 0 1 0 0 0 0.32 0"/><feBlend in2="shape" result="effect2_innerShadow_2065_46"/></filter></defs></svg>