<svg xmlns="http://www.w3.org/2000/svg" width="18" height="18" fill="none"><path fill="url(#a)" fill-rule="evenodd" d="M17.853 0H4.513C2.06 0 .097 1.918 0 4.377c0 .05.049.148.098.148h13.39c2.452 0 4.414-1.918 4.512-4.377C18 .049 17.951 0 17.853 0ZM13.39 6.738H4.512C2.06 6.738.098 8.656 0 11.115c0 .049.049.098.098.098h8.877c2.453 0 4.415-1.918 4.513-4.377 0-.05-.05-.098-.098-.098Zm-8.878 9A2.26 2.26 0 0 1 2.256 18 2.26 2.26 0 0 1 0 15.738a2.26 2.26 0 0 1 2.256-2.263 2.26 2.26 0 0 1 2.256 2.263Z" clip-rule="evenodd"/><defs><linearGradient id="a" x1="9" x2="9" y1="0" y2="18" gradientUnits="userSpaceOnUse"><stop stop-color="#D4D4D8" style="stop-color:#d4d4d8;stop-color:color(display-p3 .8314 .8314 .8471);stop-opacity:1"/><stop offset="1" stop-color="#71717A" style="stop-color:#71717a;stop-color:color(display-p3 .4431 .4431 .4784);stop-opacity:1"/></linearGradient></defs></svg>