<svg width="18" height="18" viewBox="0 0 18 18" fill="none" xmlns="http://www.w3.org/2000/svg">
<g filter="url(#filter0_di_2065_323)">
<path d="M2.2428 15.0625C5.49512 12.609 7.1212 11.3822 9 11.3822C10.8788 11.3822 12.505 12.609 15.7573 15.0625L17 16L16.0625 14.7573C13.609 11.505 12.3822 9.8788 12.3822 8C12.3822 6.12128 13.609 4.49512 16.0625 1.2428L17 0L15.7573 0.9376C12.505 3.39104 10.8788 4.61776 9 4.61776C7.12128 4.61776 5.49512 3.39104 2.2428 0.93752L1 0L1.9376 1.2428C4.39096 4.4952 5.61768 6.1212 5.61768 8C5.61768 9.8788 4.39096 11.505 1.93752 14.7572L1 16L2.2428 15.0625Z" fill="url(#paint0_linear_2065_323)" style="" shape-rendering="crispEdges"/>
</g>
<defs>
<filter id="filter0_di_2065_323" x="0" y="0" width="18" height="18" filterUnits="userSpaceOnUse" color-interpolation-filters="sRGB">
<feFlood flood-opacity="0" result="BackgroundImageFix"/>
<feColorMatrix in="SourceAlpha" type="matrix" values="0 0 0 0 0 0 0 0 0 0 0 0 0 0 0 0 0 0 127 0" result="hardAlpha"/>
<feOffset dy="1"/>
<feGaussianBlur stdDeviation="0.5"/>
<feComposite in2="hardAlpha" operator="out"/>
<feColorMatrix type="matrix" values="0 0 0 0 0.0352941 0 0 0 0 0.0352941 0 0 0 0 0.0431373 0 0 0 0.32 0"/>
<feBlend mode="normal" in2="BackgroundImageFix" result="effect1_dropShadow_2065_323"/>
<feBlend mode="normal" in="SourceGraphic" in2="effect1_dropShadow_2065_323" result="shape"/>
<feColorMatrix in="SourceAlpha" type="matrix" values="0 0 0 0 0 0 0 0 0 0 0 0 0 0 0 0 0 0 127 0" result="hardAlpha"/>
<feOffset dy="1"/>
<feComposite in2="hardAlpha" operator="arithmetic" k2="-1" k3="1"/>
<feColorMatrix type="matrix" values="0 0 0 0 1 0 0 0 0 1 0 0 0 0 1 0 0 0 0.64 0"/>
<feBlend mode="normal" in2="shape" result="effect2_innerShadow_2065_323"/>
</filter>
<linearGradient id="paint0_linear_2065_323" x1="9" y1="0" x2="9" y2="16" gradientUnits="userSpaceOnUse">
<stop stop-color="#E4E4E7" stop-opacity="0.64" style="stop-color:#E4E4E7;stop-color:color(display-p3 0.8941 0.8941 0.9059);stop-opacity:0.64;"/>
<stop offset="1" stop-color="#E4E4E7" style="stop-color:#E4E4E7;stop-color:color(display-p3 0.8941 0.8941 0.9059);stop-opacity:1;"/>
</linearGradient>
</defs>
</svg>
