<svg xmlns="http://www.w3.org/2000/svg" width="20" height="20" fill="none"><g filter="url(#a)"><path fill="#71717A" d="M0 10C0 4.477 4.477 0 10 0s10 4.477 10 10-4.477 10-10 10S0 15.523 0 10Z" style="fill:#71717a;fill:color(display-p3 .4431 .4431 .4784);fill-opacity:1"/></g><g filter="url(#b)"><path fill="url(#c)" d="M9.638 6.11v-.004c.104-.364.62-.364.723 0l.001.004.004.012a5.091 5.091 0 0 0 3.512 3.512l.012.004h.004c.364.104.364.62 0 .723l-.004.001-.012.004a5.092 5.092 0 0 0-3.512 3.512l-.004.012v.004c-.104.364-.62.364-.723 0l-.001-.004-.004-.012a5.093 5.093 0 0 0-3.512-3.512l-.012-.004h-.004c-.364-.104-.364-.62 0-.723l.004-.001.012-.004a5.092 5.092 0 0 0 3.512-3.512l.004-.012Z"/></g><defs><filter id="a" width="20" height="20" x="0" y="0" color-interpolation-filters="sRGB" filterUnits="userSpaceOnUse"><feFlood flood-opacity="0" result="BackgroundImageFix"/><feBlend in="SourceGraphic" in2="BackgroundImageFix" result="shape"/><feColorMatrix in="SourceAlpha" result="hardAlpha" values="0 0 0 0 0 0 0 0 0 0 0 0 0 0 0 0 0 0 127 0"/><feOffset dy="1"/><feComposite in2="hardAlpha" k2="-1" k3="1" operator="arithmetic"/><feColorMatrix values="0 0 0 0 1 0 0 0 0 1 0 0 0 0 1 0 0 0 0.16 0"/><feBlend in2="shape" result="effect1_innerShadow_2065_468"/></filter><filter id="b" width="10.333" height="10.333" x="4.833" y="5.833" color-interpolation-filters="sRGB" filterUnits="userSpaceOnUse"><feFlood flood-opacity="0" result="BackgroundImageFix"/><feColorMatrix in="SourceAlpha" result="hardAlpha" values="0 0 0 0 0 0 0 0 0 0 0 0 0 0 0 0 0 0 127 0"/><feOffset dy="1"/><feGaussianBlur stdDeviation=".5"/><feComposite in2="hardAlpha" operator="out"/><feColorMatrix values="0 0 0 0 0.0352941 0 0 0 0 0.0352941 0 0 0 0 0.0431373 0 0 0 0.08 0"/><feBlend in2="BackgroundImageFix" result="effect1_dropShadow_2065_468"/><feBlend in="SourceGraphic" in2="effect1_dropShadow_2065_468" result="shape"/></filter><linearGradient id="c" x1="10" x2="10" y1="5.833" y2="14.167" gradientUnits="userSpaceOnUse"><stop stop-color="#FAFAFA" style="stop-color:#fafafa;stop-color:color(display-p3 .9804 .9804 .9804);stop-opacity:1"/><stop offset="1" stop-color="#E4E4E7" style="stop-color:#e4e4e7;stop-color:color(display-p3 .8941 .8941 .9059);stop-opacity:1"/></linearGradient></defs></svg>