<svg xmlns="http://www.w3.org/2000/svg" width="16" height="16" fill="none"><path fill="url(#a)" d="M1.243 15.063c3.252-2.454 4.878-3.68 6.757-3.68 1.879 0 3.505 1.226 6.757 3.68L16 16l-.938-1.243C12.61 11.505 11.383 9.88 11.383 8c0-1.879 1.227-3.505 3.68-6.757L16 0l-1.243.938C11.505 3.39 9.88 4.618 8 4.618c-1.879 0-3.505-1.227-6.757-3.68L0 0l.938 1.243C3.39 4.495 4.618 6.12 4.618 8c0 1.879-1.227 3.505-3.68 6.757L0 16l1.243-.938Z"/><defs><linearGradient id="a" x1="8" x2="8" y1="0" y2="16" gradientUnits="userSpaceOnUse"><stop stop-color="#D4D4D8" style="stop-color:#d4d4d8;stop-color:color(display-p3 .8314 .8314 .8471);stop-opacity:1"/><stop offset="1" stop-color="#71717A" style="stop-color:#71717a;stop-color:color(display-p3 .4431 .4431 .4784);stop-opacity:1"/></linearGradient></defs></svg>