<svg xmlns="http://www.w3.org/2000/svg" width="28" height="28" fill="none"><rect width="28" height="28" fill="#27272A" rx="14" style="fill:#27272a;fill:color(display-p3 .1529 .1529 .1647);fill-opacity:1"/><path fill="url(#a)" d="M0 14C0 6.268 6.268 0 14 0s14 6.268 14 14-6.268 14-14 14S0 21.732 0 14Z"/><g filter="url(#b)"><path fill="url(#c)" d="M7.7 7.7A6.3 6.3 0 0 0 14 14a6.3 6.3 0 0 0-6.3 6.3A6.3 6.3 0 0 0 14 14a6.3 6.3 0 0 0 6.3 6.3 6.3 6.3 0 0 0-6.298-6.3A6.3 6.3 0 0 0 20.3 7.7 6.3 6.3 0 0 0 14 14a6.3 6.3 0 0 0-6.3-6.3Z" shape-rendering="crispEdges"/></g><defs><linearGradient id="a" x1="14" x2="14" y1="0" y2="28" gradientUnits="userSpaceOnUse"><stop stop-color="#52525C" style="stop-color:#52525c;stop-color:color(display-p3 .3212 .3211 .3621);stop-opacity:1"/><stop offset="1" stop-color="#27272A" style="stop-color:#27272a;stop-color:color(display-p3 .1529 .1529 .1647);stop-opacity:1"/></linearGradient><linearGradient id="c" x1="14" x2="14" y1="7.7" y2="20.3" gradientUnits="userSpaceOnUse"><stop stop-color="#E4E4E7" stop-opacity=".64" style="stop-color:#e4e4e7;stop-color:color(display-p3 .8941 .8941 .9059);stop-opacity:.64"/><stop offset="1" stop-color="#E4E4E7" style="stop-color:#e4e4e7;stop-color:color(display-p3 .8941 .8941 .9059);stop-opacity:1"/></linearGradient><filter id="b" width="14.6" height="14.6" x="6.7" y="7.7" color-interpolation-filters="sRGB" filterUnits="userSpaceOnUse"><feFlood flood-opacity="0" result="BackgroundImageFix"/><feColorMatrix in="SourceAlpha" result="hardAlpha" values="0 0 0 0 0 0 0 0 0 0 0 0 0 0 0 0 0 0 127 0"/><feOffset dy="1"/><feGaussianBlur stdDeviation=".5"/><feComposite in2="hardAlpha" operator="out"/><feColorMatrix values="0 0 0 0 0.0352941 0 0 0 0 0.0352941 0 0 0 0 0.0431373 0 0 0 0.32 0"/><feBlend in2="BackgroundImageFix" result="effect1_dropShadow_2285_461"/><feBlend in="SourceGraphic" in2="effect1_dropShadow_2285_461" result="shape"/><feColorMatrix in="SourceAlpha" result="hardAlpha" values="0 0 0 0 0 0 0 0 0 0 0 0 0 0 0 0 0 0 127 0"/><feOffset dy="1"/><feComposite in2="hardAlpha" k2="-1" k3="1" operator="arithmetic"/><feColorMatrix values="0 0 0 0 1 0 0 0 0 1 0 0 0 0 1 0 0 0 0.32 0"/><feBlend in2="shape" result="effect2_innerShadow_2285_461"/></filter></defs></svg>