<svg xmlns="http://www.w3.org/2000/svg" width="28" height="28" fill="none"><rect width="28" height="28" fill="#27272A" rx="14" style="fill:#27272a;fill:color(display-p3 .1529 .1529 .1647);fill-opacity:1"/><path fill="url(#a)" d="M0 14C0 6.268 6.268 0 14 0s14 6.268 14 14-6.268 14-14 14S0 21.732 0 14Z"/><g filter="url(#b)"><path fill="url(#c)" d="M13.44 13.44c-.52-.893-1.253-2.208-1.536-2.985-.457-1.258-.416-2.147-.124-2.768C12.213 6.762 13.106 6.3 14 6.3c.893 0 1.787.462 2.22 1.387.292.621.333 1.51-.124 2.768-.283.777-1.016 2.092-1.535 2.984.892-.519 2.207-1.252 2.984-1.535 1.258-.457 2.146-.416 2.768-.124.925.433 1.387 1.327 1.387 2.22 0 .893-.462 1.787-1.387 2.22-.622.292-1.51.333-2.768-.124-.777-.283-2.092-1.016-2.984-1.535.519.892 1.252 2.207 1.535 2.984.457 1.258.416 2.147.124 2.768-.433.925-1.327 1.387-2.22 1.387-.894 0-1.787-.462-2.22-1.387-.292-.621-.333-1.51.124-2.768.283-.777 1.016-2.092 1.535-2.984-.892.52-2.207 1.252-2.984 1.535-1.258.457-2.147.416-2.769.124C6.762 15.787 6.3 14.894 6.3 14c0-.893.462-1.787 1.386-2.22.622-.292 1.51-.333 2.769.124.777.283 2.092 1.016 2.984 1.535Z" shape-rendering="crispEdges"/></g><defs><linearGradient id="a" x1="14" x2="14" y1="0" y2="28" gradientUnits="userSpaceOnUse"><stop stop-color="#52525C" style="stop-color:#52525c;stop-color:color(display-p3 .3212 .3211 .3621);stop-opacity:1"/><stop offset="1" stop-color="#27272A" style="stop-color:#27272a;stop-color:color(display-p3 .1529 .1529 .1647);stop-opacity:1"/></linearGradient><linearGradient id="c" x1="14" x2="14" y1="6.3" y2="21.7" gradientUnits="userSpaceOnUse"><stop stop-color="#E4E4E7" stop-opacity=".64" style="stop-color:#e4e4e7;stop-color:color(display-p3 .8941 .8941 .9059);stop-opacity:.64"/><stop offset="1" stop-color="#E4E4E7" style="stop-color:#e4e4e7;stop-color:color(display-p3 .8941 .8941 .9059);stop-opacity:1"/></linearGradient><filter id="b" width="17.4" height="17.4" x="5.3" y="6.3" color-interpolation-filters="sRGB" filterUnits="userSpaceOnUse"><feFlood flood-opacity="0" result="BackgroundImageFix"/><feColorMatrix in="SourceAlpha" result="hardAlpha" values="0 0 0 0 0 0 0 0 0 0 0 0 0 0 0 0 0 0 127 0"/><feOffset dy="1"/><feGaussianBlur stdDeviation=".5"/><feComposite in2="hardAlpha" operator="out"/><feColorMatrix values="0 0 0 0 0.0352941 0 0 0 0 0.0352941 0 0 0 0 0.0431373 0 0 0 0.32 0"/><feBlend in2="BackgroundImageFix" result="effect1_dropShadow_2285_467"/><feBlend in="SourceGraphic" in2="effect1_dropShadow_2285_467" result="shape"/><feColorMatrix in="SourceAlpha" result="hardAlpha" values="0 0 0 0 0 0 0 0 0 0 0 0 0 0 0 0 0 0 127 0"/><feOffset dy="1"/><feComposite in2="hardAlpha" k2="-1" k3="1" operator="arithmetic"/><feColorMatrix values="0 0 0 0 1 0 0 0 0 1 0 0 0 0 1 0 0 0 0.32 0"/><feBlend in2="shape" result="effect2_innerShadow_2285_467"/></filter></defs></svg>