<svg xmlns="http://www.w3.org/2000/svg" width="28" height="28" fill="none"><rect width="28" height="28" fill="url(#a)" rx="14"/><g filter="url(#b)"><path fill="url(#c)" d="m13.467 8.282.002-.006c.152-.535.91-.535 1.062 0l.002.006.005.018a7.486 7.486 0 0 0 5.162 5.162l.018.005.006.002c.535.152.535.91 0 1.062l-.006.002-.018.005a7.485 7.485 0 0 0-5.162 5.162l-.005.018-.002.006c-.152.535-.91.535-1.062 0l-.002-.006-.005-.018A7.486 7.486 0 0 0 8.3 14.538l-.018-.005-.006-.002c-.535-.152-.535-.91 0-1.062l.006-.002.018-.005A7.486 7.486 0 0 0 13.462 8.3l.005-.018Z" shape-rendering="crispEdges"/></g><defs><linearGradient id="a" x1="14" x2="14" y1="0" y2="28" gradientUnits="userSpaceOnUse"><stop stop-color="#52525C" style="stop-color:#52525c;stop-color:color(display-p3 .3212 .3211 .3621);stop-opacity:1"/><stop offset="1" stop-color="#27272A" style="stop-color:#27272a;stop-color:color(display-p3 .1529 .1529 .1647);stop-opacity:1"/></linearGradient><linearGradient id="c" x1="14" x2="14" y1="7.875" y2="20.125" gradientUnits="userSpaceOnUse"><stop stop-color="#E4E4E7" stop-opacity=".64" style="stop-color:#e4e4e7;stop-color:color(display-p3 .8941 .8941 .9059);stop-opacity:.64"/><stop offset="1" stop-color="#E4E4E7" style="stop-color:#e4e4e7;stop-color:color(display-p3 .8941 .8941 .9059);stop-opacity:1"/></linearGradient><filter id="b" width="14.25" height="14.25" x="6.875" y="7.875" color-interpolation-filters="sRGB" filterUnits="userSpaceOnUse"><feFlood flood-opacity="0" result="BackgroundImageFix"/><feColorMatrix in="SourceAlpha" result="hardAlpha" values="0 0 0 0 0 0 0 0 0 0 0 0 0 0 0 0 0 0 127 0"/><feOffset dy="1"/><feGaussianBlur stdDeviation=".5"/><feComposite in2="hardAlpha" operator="out"/><feColorMatrix values="0 0 0 0 0.0352941 0 0 0 0 0.0352941 0 0 0 0 0.0431373 0 0 0 0.32 0"/><feBlend in2="BackgroundImageFix" result="effect1_dropShadow_2285_21"/><feBlend in="SourceGraphic" in2="effect1_dropShadow_2285_21" result="shape"/><feColorMatrix in="SourceAlpha" result="hardAlpha" values="0 0 0 0 0 0 0 0 0 0 0 0 0 0 0 0 0 0 127 0"/><feOffset dy="1"/><feComposite in2="hardAlpha" k2="-1" k3="1" operator="arithmetic"/><feColorMatrix values="0 0 0 0 1 0 0 0 0 1 0 0 0 0 1 0 0 0 0.32 0"/><feBlend in2="shape" result="effect2_innerShadow_2285_21"/></filter></defs></svg>