<svg xmlns="http://www.w3.org/2000/svg" width="28" height="28" fill="none"><path fill="url(#a)" d="M0 14C0 6.268 6.268 0 14 0s14 6.268 14 14-6.268 14-14 14S0 21.732 0 14Z"/><g filter="url(#b)"><path fill="url(#c)" d="M16.73 9.73a2.73 2.73 0 1 1-5.46 0 2.73 2.73 0 0 1 5.46 0Zm0 8.54a2.73 2.73 0 1 1-5.46 0 2.73 2.73 0 0 1 5.46 0Zm1.54-1.54a2.73 2.73 0 1 1 0-5.46 2.73 2.73 0 0 1 0 5.46Zm-8.54 0a2.73 2.73 0 1 1 0-5.46 2.73 2.73 0 0 1 0 5.46Z" shape-rendering="crispEdges"/></g><defs><linearGradient id="a" x1="14" x2="14" y1="0" y2="28" gradientUnits="userSpaceOnUse"><stop stop-color="#52525C" style="stop-color:#52525c;stop-color:color(display-p3 .3212 .3211 .3621);stop-opacity:1"/><stop offset="1" stop-color="#27272A" style="stop-color:#27272a;stop-color:color(display-p3 .1529 .1529 .1647);stop-opacity:1"/></linearGradient><linearGradient id="c" x1="14" x2="14" y1="7" y2="21" gradientUnits="userSpaceOnUse"><stop stop-color="#E4E4E7" stop-opacity=".64" style="stop-color:#e4e4e7;stop-color:color(display-p3 .8941 .8941 .9059);stop-opacity:.64"/><stop offset="1" stop-color="#E4E4E7" style="stop-color:#e4e4e7;stop-color:color(display-p3 .8941 .8941 .9059);stop-opacity:1"/></linearGradient><filter id="b" width="16" height="16" x="6" y="7" color-interpolation-filters="sRGB" filterUnits="userSpaceOnUse"><feFlood flood-opacity="0" result="BackgroundImageFix"/><feColorMatrix in="SourceAlpha" result="hardAlpha" values="0 0 0 0 0 0 0 0 0 0 0 0 0 0 0 0 0 0 127 0"/><feOffset dy="1"/><feGaussianBlur stdDeviation=".5"/><feComposite in2="hardAlpha" operator="out"/><feColorMatrix values="0 0 0 0 0.0352941 0 0 0 0 0.0352941 0 0 0 0 0.0431373 0 0 0 0.32 0"/><feBlend in2="BackgroundImageFix" result="effect1_dropShadow_2285_17"/><feBlend in="SourceGraphic" in2="effect1_dropShadow_2285_17" result="shape"/><feColorMatrix in="SourceAlpha" result="hardAlpha" values="0 0 0 0 0 0 0 0 0 0 0 0 0 0 0 0 0 0 127 0"/><feOffset dy="1"/><feComposite in2="hardAlpha" k2="-1" k3="1" operator="arithmetic"/><feColorMatrix values="0 0 0 0 1 0 0 0 0 1 0 0 0 0 1 0 0 0 0.32 0"/><feBlend in2="shape" result="effect2_innerShadow_2285_17"/></filter></defs></svg>